<?xml version="1.0" standalone="no"?>
<!DOCTYPE svg PUBLIC "-//W3C//DTD SVG 20010904//EN"
 "http://www.w3.org/TR/2001/REC-SVG-20010904/DTD/svg10.dtd">
<svg version="1.0" xmlns="http://www.w3.org/2000/svg"
 width="225.000000pt" height="225.000000pt" viewBox="0 0 225.000000 225.000000"
 preserveAspectRatio="xMidYMid meet">
<metadata>
Created by potrace 1.11, written by Peter Selinger 2001-2013
</metadata>
<g transform="translate(0.000000,225.000000) scale(0.100000,-0.100000)"
fill="#000000" stroke="none">
<path d="M0 1125 l0 -1125 1125 0 1125 0 0 1125 0 1125 -1125 0 -1125 0 0
-1125z m690 214 l235 -251 3 251 2 251 149 0 149 0 137 -167 c75 -93 140 -168
145 -168 4 0 69 75 145 168 l138 167 128 0 129 0 0 -465 0 -465 -135 0 -135 0
0 265 c0 146 -4 265 -8 265 -4 0 -62 -65 -127 -145 -66 -80 -127 -145 -137
-145 -9 0 -71 64 -140 147 l-123 146 -3 -266 -2 -267 -138 1 -137 0 -240 256
-240 256 -3 -257 -2 -256 -140 0 -140 0 0 465 0 465 128 0 128 0 234 -251z"/>
</g>
</svg>
